<?xml version="1.0" encoding="utf-8"?>
<!-- Generator: Adobe Illustrator 22.0.1, SVG Export Plug-In . SVG Version: 6.00 Build 0)  -->
<svg version="1.1" id="Layer_1" xmlns="http://www.w3.org/2000/svg" xmlns:xlink="http://www.w3.org/1999/xlink" x="0px" y="0px"
     viewBox="0 0 410.94 109.92" style="enable-background:new 0 0 410.94 109.92;" xml:space="preserve">
<style type="text/css">
	.st0{fill:#FFFFFF;}
	.st1{fill:#FF303E;}
	.st2{fill:#FFCD00;}
	.st3{fill:#44BE00;}
</style>
    <g>
	<path class="st0" d="M167.26,107.69c0,0,13.7-39,17.31-47.03c3.61-8.03,3.74-8.03,9.47-8c6.47,0.04,9.58,4.41,7.24,9.69
		c-2.18,4.92-5.91,12.07-22.08,17.25l-0.36,2.69l11.3,25.39h20c0,0-2.71-4.29-6.23-10.56c-4.59-8.18-5.95-11.63-8.6-17.64
		c9.47-2.77,20.74-6.73,23.26-17.36c3.12-13.02-15.38-12.34-21.65-12.37c-7.88-0.03-18.79-0.01-29.87,0l-1.21,3.61
		c4.58,0.86,3.66,3.45,1.69,9.13c-5.19,15.01-7.87,21.63-11.9,31.79c-4.03,10.17-5.15,13.39-5.15,13.39H167.26z"/>
        <path class="st0" d="M118.91,49.83c-10.88,0.15-38.32,3.35-44.85,34.08c-3.69,17.33,7.81,26.27,29.95,26
		c10.91-0.16,38.33-3.36,44.86-34.08C152.55,58.5,141.05,49.56,118.91,49.83 M130.99,77.81c-7.09,24.3-21.09,27.25-26.52,27.02
		c-11.02-0.47-15.6-9.22-11.62-22.92c7.11-24.28,21.11-27.24,26.53-27.01C130.4,55.37,134.99,64.12,130.99,77.81"/>
        <path class="st0" d="M315.14,49.49l-1.2,3.52c3,0.82,4.45,2.97,2.79,8.93c-2.39,8.53-17.33,46.15-17.33,46.15
		c0,0.01,47.67-0.01,48.16-0.04c-0.03,0.03,3.48-10.45,3.48-10.45h-29.11c3.97-10.05,16.85-48.1,16.85-48.1L315.14,49.49z"/>
        <path class="st0" d="M258.17,55.16c-2.48,2.82-39.18,52.88-39.18,52.88h16.04l13.82-18.74l21.35-0.02l4.95,18.75h17.21
		c0,0-12.55-50.56-13.92-55.16C277.07,48.26,264.01,48.5,258.17,55.16 M268.5,83.85c-6.72,0-9.69-0.02-16.54-0.02
		c-0.23,0-0.48-0.34-0.31-0.62c0.41-0.71,9.49-13.34,13.69-18.78c0,0,1.36,9.71,3.77,18.85C269.21,83.65,268.9,83.85,268.5,83.85"/>
        <path class="st0" d="M30.18,102.59c-10.53-0.62-12.7-9.08-9.88-21.94c5.01-22.93,18.58-23.9,23.77-23.58
		c6.06,0.37,7.65,3.07,9.04,7.55h17.11c-3.49-7.95-11.93-15.55-29.65-15.04c-5.6,0.17-35.55,3.29-40.3,30.71
		c-1.54,8.87,2.96,29.08,31.49,28.24c4.23-0.12,23.98-0.76,31.04-14.58H44.68C40.79,101.65,33.58,102.81,30.18,102.59"/>
        <path class="st1" d="M354.27,88.58c5.43-4.2,14.03-9.86,23.64-8.14c7.27,1.3,10.75,1.69,16.14-0.24
		c-5.18-1.51-7.64-4.01-10.45-7.88c4.8-1.63,6.37-1.88,12.63-5.74c-1.07-0.9-5.02-4.14-12.15-4.2c-10.29-0.07-16.01,3.49-23.96,8.63
		L354.27,88.58z"/>
        <path class="st2" d="M410.94,52.06c-2.56,2.51-7.04,6.7-16.83,2.79c-9.81-3.93-17.64,1.06-19.72,2.15l-5.44,16.19
		c6.02-3.66,12.75-6.88,19.97-4.12c7.2,2.76,10.53,2.42,16.72-0.95L410.94,52.06z"/>
        <path class="st3" d="M361.98,65.48c7.96-5.12,13.68-8.66,23.97-8.61c8.84,0.06,14.49-0.92,22.11-11.35
		c-7.54,3.96-12.15,4.58-20.23,2.1c-8.07-2.45-14.04-1.02-20.69,2.48L361.98,65.48z"/>
</g>
    <g>
	<path class="st0" d="M6.61,4.17H2.13V0.62h13.33v3.55h-4.49v16.7H6.61V4.17z"/>
        <path class="st0" d="M22.19,0v6.32c0.79-0.54,1.53-0.91,2.23-1.11c0.7-0.2,1.46-0.3,2.29-0.3c0.83,0,1.54,0.09,2.12,0.28
		s1.06,0.49,1.43,0.92c0.37,0.43,0.65,0.99,0.83,1.7c0.18,0.71,0.26,1.58,0.26,2.62v10.44h-4.24V10.56c0-0.87-0.14-1.46-0.42-1.76
		c-0.28-0.3-0.79-0.45-1.54-0.45c-0.48,0-0.99,0.11-1.53,0.34c-0.54,0.23-1.02,0.55-1.43,0.97v11.21h-4.24V0H22.19z"/>
        <path class="st0" d="M41.44,17.82c0.71,0,1.32-0.01,1.85-0.03c0.53-0.02,1.02-0.06,1.46-0.11c0.45-0.05,0.88-0.11,1.29-0.17
		c0.42-0.06,0.87-0.13,1.37-0.22v3.4c-0.89,0.17-1.83,0.3-2.82,0.41c-0.99,0.1-2.03,0.16-3.13,0.16c-1.16,0-2.18-0.11-3.05-0.33
		c-0.87-0.22-1.6-0.6-2.18-1.15c-0.58-0.55-1.02-1.29-1.32-2.21c-0.3-0.92-0.45-2.1-0.45-3.54v-1.9c0-1.39,0.15-2.55,0.44-3.49
		c0.29-0.93,0.73-1.67,1.31-2.21c0.58-0.54,1.31-0.92,2.18-1.15s1.89-0.34,3.05-0.34c1.1,0,2.07,0.11,2.91,0.33
		c0.84,0.22,1.54,0.6,2.1,1.15c0.56,0.55,0.98,1.29,1.26,2.21c0.28,0.92,0.42,2.1,0.42,3.54v2.34H38.7c0,1.08,0.18,1.91,0.53,2.48
		C39.58,17.53,40.32,17.82,41.44,17.82z M43.96,11.68c0-0.69-0.05-1.25-0.16-1.68c-0.1-0.44-0.26-0.77-0.48-1.01
		c-0.22-0.24-0.49-0.4-0.81-0.5c-0.32-0.09-0.69-0.14-1.11-0.14c-1.06,0-1.78,0.25-2.15,0.75c-0.37,0.5-0.56,1.36-0.56,2.59H43.96z"
        />
        <path class="st0" d="M69.97,16.35c0,0.6-0.05,1.19-0.16,1.78c-0.1,0.58-0.37,1.11-0.81,1.57c-0.44,0.47-1.1,0.84-1.99,1.12
		c-0.89,0.28-2.13,0.42-3.71,0.42c-1.31,0-2.4-0.11-3.27-0.33c-0.87-0.22-1.56-0.55-2.07-0.98c-0.51-0.44-0.87-0.98-1.09-1.64
		s-0.33-1.43-0.33-2.32h4.24c0,0.73,0.19,1.21,0.58,1.46c0.38,0.25,1.03,0.37,1.95,0.37c0.87,0,1.5-0.12,1.87-0.36
		c0.37-0.24,0.56-0.61,0.56-1.11c0-0.33-0.04-0.61-0.11-0.84c-0.07-0.23-0.22-0.42-0.45-0.56c-0.23-0.15-0.55-0.26-0.97-0.34
		c-0.42-0.08-0.97-0.16-1.65-0.22c-1.18-0.08-2.15-0.24-2.91-0.47c-0.76-0.23-1.36-0.53-1.79-0.9c-0.44-0.37-0.74-0.83-0.9-1.37
		c-0.17-0.54-0.25-1.16-0.25-1.87c0-1.64,0.55-2.86,1.67-3.66c1.11-0.8,2.71-1.2,4.78-1.2c1.2,0,2.22,0.09,3.05,0.28
		c0.83,0.19,1.51,0.49,2.03,0.9c0.52,0.42,0.89,0.96,1.12,1.64c0.23,0.68,0.34,1.51,0.34,2.51h-4.24c0-0.21-0.02-0.42-0.05-0.64
		S65.29,9.19,65.14,9C65,8.82,64.77,8.66,64.46,8.54s-0.75-0.19-1.31-0.19c-0.91,0-1.51,0.15-1.79,0.45
		c-0.28,0.3-0.42,0.67-0.42,1.11c0,0.56,0.16,0.97,0.48,1.23c0.32,0.26,1,0.43,2.04,0.51c1.39,0.12,2.51,0.29,3.36,0.48
		c0.85,0.2,1.51,0.48,1.98,0.84c0.47,0.36,0.78,0.82,0.93,1.35C69.89,14.87,69.97,15.54,69.97,16.35z"/>
        <path class="st0" d="M89.66,10.59c0-0.91-0.13-1.52-0.39-1.81c-0.26-0.29-0.71-0.44-1.35-0.44c-0.29,0-0.67,0.08-1.12,0.23
		c-0.46,0.16-0.85,0.35-1.18,0.58v11.71h-4.24V10.59c0-0.91-0.13-1.52-0.39-1.81c-0.26-0.29-0.71-0.44-1.36-0.44
		c-0.29,0-0.67,0.08-1.12,0.23c-0.46,0.16-0.85,0.35-1.18,0.58v11.71h-4.24V5.3h2.99l0.69,1.15c0.68-0.48,1.36-0.85,2.02-1.12
		c0.66-0.27,1.42-0.4,2.27-0.4c0.96,0,1.71,0.11,2.27,0.33c0.56,0.22,1.08,0.61,1.56,1.17c0.62-0.39,1.31-0.74,2.06-1.04
		c0.75-0.3,1.57-0.45,2.46-0.45c0.87,0,1.6,0.09,2.18,0.28c0.58,0.19,1.04,0.5,1.39,0.95c0.34,0.45,0.58,1.03,0.72,1.76
		c0.13,0.73,0.2,1.63,0.2,2.71v10.25h-4.24V10.59z"/>
        <path class="st0" d="M96.85,16.63c0-1.37,0.38-2.45,1.15-3.24c0.77-0.79,2.08-1.25,3.92-1.37l4.39-0.31v-1.37
		c0-0.73-0.17-1.24-0.51-1.54c-0.34-0.3-0.96-0.45-1.85-0.45c-0.91,0-1.54,0.16-1.87,0.48c-0.33,0.32-0.5,0.84-0.5,1.54h-4.17
		c0-1.79,0.5-3.14,1.5-4.06c1-0.92,2.67-1.39,5.02-1.39c2.41,0,4.12,0.45,5.12,1.34c1.01,0.89,1.51,2.25,1.51,4.08v10.53h-3.08
		l-0.72-1.34c-1.41,1.14-3,1.71-4.77,1.71c-1.74,0-3.04-0.41-3.88-1.23S96.85,18.07,96.85,16.63z M102.83,17.82
		c0.68,0,1.32-0.11,1.9-0.33c0.58-0.22,1.11-0.53,1.59-0.95v-2.43l-3.55,0.41c-1.12,0.12-1.68,0.7-1.68,1.71
		c0,0.54,0.16,0.94,0.48,1.2C101.89,17.69,102.32,17.82,102.83,17.82z"/>
        <path class="st0" d="M122.21,8.66c-0.73,0-1.43,0.1-2.1,0.31c-0.68,0.21-1.25,0.5-1.73,0.87v11.03h-4.24V5.3h2.99l0.69,1.15
		c0.66-0.52,1.37-0.9,2.1-1.15c0.74-0.25,1.5-0.37,2.29-0.37V8.66z"/>
        <path class="st0" d="M133.58,20.87c-0.35,0.1-0.78,0.19-1.29,0.26s-1.04,0.11-1.6,0.11c-0.71,0-1.32-0.07-1.85-0.2
		c-0.53-0.14-0.97-0.37-1.32-0.7c-0.35-0.33-0.62-0.78-0.79-1.34c-0.18-0.56-0.26-1.26-0.26-2.09V8.72h-1.99V5.7l1.99-0.41V1.78
		l4.24-0.84V5.3h2.9v3.43h-2.9v7.79c0,0.5,0.09,0.84,0.28,1.03c0.19,0.19,0.5,0.28,0.93,0.28c0.29,0,0.59-0.02,0.9-0.05
		c0.31-0.03,0.57-0.07,0.78-0.11V20.87z"/>
        <path class="st0" d="M159.03,10.59c0-0.91-0.13-1.52-0.39-1.81c-0.26-0.29-0.71-0.44-1.36-0.44c-0.29,0-0.66,0.08-1.12,0.23
		s-0.85,0.35-1.18,0.58v11.71h-4.24V10.59c0-0.91-0.13-1.52-0.39-1.81c-0.26-0.29-0.71-0.44-1.35-0.44c-0.29,0-0.67,0.08-1.12,0.23
		s-0.85,0.35-1.18,0.58v11.71h-4.24V5.3h2.99l0.69,1.15c0.69-0.48,1.36-0.85,2.02-1.12c0.67-0.27,1.42-0.4,2.27-0.4
		c0.96,0,1.71,0.11,2.27,0.33c0.56,0.22,1.08,0.61,1.56,1.17c0.62-0.39,1.31-0.74,2.06-1.04c0.75-0.3,1.57-0.45,2.46-0.45
		c0.87,0,1.6,0.09,2.18,0.28s1.04,0.5,1.39,0.95c0.34,0.45,0.58,1.03,0.72,1.76c0.13,0.73,0.2,1.63,0.2,2.71v10.25h-4.24V10.59z"/>
        <path class="st0" d="M180.3,14.05c0,1.41-0.15,2.58-0.44,3.5c-0.29,0.92-0.73,1.66-1.31,2.2c-0.58,0.54-1.31,0.92-2.18,1.15
		c-0.87,0.23-1.88,0.34-3.02,0.34c-1.16,0-2.18-0.11-3.05-0.34c-0.87-0.23-1.6-0.61-2.18-1.15c-0.58-0.54-1.02-1.27-1.31-2.2
		c-0.29-0.92-0.44-2.09-0.44-3.5v-1.93c0-1.39,0.15-2.55,0.44-3.47c0.29-0.92,0.73-1.66,1.32-2.21c0.59-0.55,1.32-0.94,2.18-1.17
		s1.87-0.34,3.04-0.34c1.14,0,2.14,0.11,3.01,0.34c0.86,0.23,1.58,0.62,2.17,1.17c0.58,0.55,1.02,1.29,1.32,2.21
		c0.3,0.92,0.45,2.08,0.45,3.47V14.05z M170.62,14.36c0,1.37,0.21,2.29,0.62,2.76s1.12,0.7,2.12,0.7c0.5,0,0.92-0.05,1.26-0.16
		c0.34-0.1,0.62-0.29,0.84-0.54c0.22-0.26,0.37-0.61,0.47-1.06c0.09-0.45,0.14-1.01,0.14-1.7v-2.55c0-0.69-0.05-1.25-0.14-1.7
		c-0.09-0.45-0.25-0.8-0.47-1.06c-0.22-0.26-0.5-0.44-0.84-0.55c-0.34-0.1-0.76-0.16-1.26-0.16c-1,0-1.7,0.23-2.12,0.7
		s-0.62,1.39-0.62,2.76V14.36z"/>
        <path class="st0" d="M186.66,5.3l0.72,1.34c0.89-0.66,1.71-1.12,2.46-1.35s1.58-0.36,2.49-0.36c0.83,0,1.54,0.09,2.13,0.28
		s1.08,0.49,1.46,0.92c0.38,0.43,0.66,0.99,0.84,1.7s0.26,1.58,0.26,2.62v10.44h-4.24V10.56c0-0.87-0.14-1.46-0.42-1.76
		c-0.28-0.3-0.79-0.45-1.54-0.45c-0.48,0-1,0.11-1.56,0.34c-0.56,0.23-1.05,0.55-1.46,0.97v11.21h-4.24V5.3H186.66z"/>
        <path class="st0" d="M207.12,17.82c0.71,0,1.32-0.01,1.85-0.03c0.53-0.02,1.02-0.06,1.46-0.11c0.45-0.05,0.88-0.11,1.29-0.17
		c0.42-0.06,0.87-0.13,1.37-0.22v3.4c-0.89,0.17-1.83,0.3-2.82,0.41c-0.99,0.1-2.03,0.16-3.13,0.16c-1.16,0-2.18-0.11-3.05-0.33
		c-0.87-0.22-1.6-0.6-2.18-1.15c-0.58-0.55-1.02-1.29-1.32-2.21c-0.3-0.92-0.45-2.1-0.45-3.54v-1.9c0-1.39,0.14-2.55,0.44-3.49
		c0.29-0.93,0.73-1.67,1.31-2.21c0.58-0.54,1.31-0.92,2.18-1.15s1.89-0.34,3.05-0.34c1.1,0,2.07,0.11,2.91,0.33
		c0.84,0.22,1.54,0.6,2.1,1.15c0.56,0.55,0.98,1.29,1.26,2.21c0.28,0.92,0.42,2.1,0.42,3.54v2.34h-9.44c0,1.08,0.18,1.91,0.53,2.48
		C205.26,17.53,206,17.82,207.12,17.82z M209.65,11.68c0-0.69-0.05-1.25-0.16-1.68c-0.1-0.44-0.26-0.77-0.48-1.01
		c-0.22-0.24-0.49-0.4-0.81-0.5c-0.32-0.09-0.69-0.14-1.11-0.14c-1.06,0-1.78,0.25-2.15,0.75c-0.37,0.5-0.56,1.36-0.56,2.59H209.65z
		"/>
        <path class="st0" d="M215.32,5.3h4.55l2.93,10.37h0.06l2.71-10.37h4.58l-5.83,17.38c-0.23,0.71-0.5,1.3-0.81,1.79
		s-0.7,0.89-1.15,1.2c-0.46,0.31-1.01,0.53-1.67,0.67c-0.65,0.13-1.44,0.2-2.35,0.2c-0.27,0-0.63-0.03-1.09-0.08
		s-0.83-0.13-1.12-0.23v-3.4c0.31,0.1,0.65,0.18,1.01,0.22c0.36,0.04,0.71,0.06,1.04,0.06c0.73,0,1.25-0.13,1.57-0.39
		c0.32-0.26,0.61-0.72,0.86-1.39l0.19-0.53L215.32,5.3z"/>
        <path class="st0" d="M232.01,0.62h4.17l-1.99,8.1h-2.18V0.62z"/>
        <path class="st0" d="M251.42,16.35c0,0.6-0.05,1.19-0.16,1.78c-0.1,0.58-0.37,1.11-0.81,1.57c-0.44,0.47-1.1,0.84-1.99,1.12
		s-2.13,0.42-3.71,0.42c-1.31,0-2.4-0.11-3.27-0.33c-0.87-0.22-1.56-0.55-2.07-0.98s-0.87-0.98-1.09-1.64
		c-0.22-0.65-0.33-1.43-0.33-2.32h4.24c0,0.73,0.19,1.21,0.58,1.46c0.38,0.25,1.03,0.37,1.95,0.37c0.87,0,1.5-0.12,1.87-0.36
		c0.37-0.24,0.56-0.61,0.56-1.11c0-0.33-0.04-0.61-0.11-0.84c-0.07-0.23-0.22-0.42-0.45-0.56c-0.23-0.15-0.55-0.26-0.97-0.34
		c-0.42-0.08-0.96-0.16-1.65-0.22c-1.18-0.08-2.16-0.24-2.91-0.47s-1.35-0.53-1.79-0.9c-0.44-0.37-0.74-0.83-0.9-1.37
		s-0.25-1.16-0.25-1.87c0-1.64,0.56-2.86,1.67-3.66c1.11-0.8,2.7-1.2,4.78-1.2c1.2,0,2.22,0.09,3.05,0.28
		c0.83,0.19,1.5,0.49,2.02,0.9c0.52,0.42,0.89,0.96,1.12,1.64c0.23,0.68,0.34,1.51,0.34,2.51h-4.24c0-0.21-0.02-0.42-0.05-0.64
		c-0.03-0.22-0.12-0.42-0.27-0.61s-0.37-0.34-0.68-0.47s-0.75-0.19-1.31-0.19c-0.91,0-1.51,0.15-1.79,0.45
		c-0.28,0.3-0.42,0.67-0.42,1.11c0,0.56,0.16,0.97,0.48,1.23c0.32,0.26,1,0.43,2.04,0.51c1.39,0.12,2.51,0.29,3.36,0.48
		c0.85,0.2,1.51,0.48,1.98,0.84c0.47,0.36,0.78,0.82,0.93,1.35C251.34,14.87,251.42,15.54,251.42,16.35z"/>
        <path class="st0" d="M273.91,14.05c0,1.41-0.15,2.58-0.44,3.5c-0.29,0.92-0.73,1.66-1.31,2.2c-0.58,0.54-1.31,0.92-2.18,1.15
		c-0.87,0.23-1.88,0.34-3.02,0.34c-1.16,0-2.18-0.11-3.05-0.34c-0.87-0.23-1.6-0.61-2.18-1.15c-0.58-0.54-1.02-1.27-1.31-2.2
		c-0.29-0.92-0.44-2.09-0.44-3.5v-1.93c0-1.39,0.15-2.55,0.44-3.47c0.29-0.92,0.73-1.66,1.32-2.21c0.59-0.55,1.32-0.94,2.18-1.17
		s1.87-0.34,3.04-0.34c1.14,0,2.14,0.11,3.01,0.34c0.86,0.23,1.58,0.62,2.17,1.17c0.58,0.55,1.02,1.29,1.32,2.21
		c0.3,0.92,0.45,2.08,0.45,3.47V14.05z M264.22,14.36c0,1.37,0.21,2.29,0.62,2.76s1.12,0.7,2.12,0.7c0.5,0,0.92-0.05,1.26-0.16
		c0.34-0.1,0.62-0.29,0.84-0.54c0.22-0.26,0.37-0.61,0.47-1.06c0.09-0.45,0.14-1.01,0.14-1.7v-2.55c0-0.69-0.05-1.25-0.14-1.7
		c-0.09-0.45-0.25-0.8-0.47-1.06c-0.22-0.26-0.5-0.44-0.84-0.55c-0.34-0.1-0.76-0.16-1.26-0.16c-1,0-1.7,0.23-2.12,0.7
		s-0.62,1.39-0.62,2.76V14.36z"/>
        <path class="st0" d="M280.26,5.3l0.72,1.34c0.89-0.66,1.71-1.12,2.46-1.35c0.75-0.24,1.58-0.36,2.49-0.36
		c0.83,0,1.54,0.09,2.13,0.28s1.08,0.49,1.46,0.92c0.38,0.43,0.66,0.99,0.84,1.7c0.18,0.71,0.26,1.58,0.26,2.62v10.44h-4.24V10.56
		c0-0.87-0.14-1.46-0.42-1.76c-0.28-0.3-0.79-0.45-1.54-0.45c-0.48,0-1,0.11-1.56,0.34c-0.56,0.23-1.05,0.55-1.46,0.97v11.21h-4.24
		V5.3H280.26z"/>
</g>
</svg>
